{
	"streams": [
		{
			"index": 0,
			"codec_name": "hevc",
			"codec_long_name": "unknown",
			"profile": "2",
			"codec_type": "video",
			"codec_time_base": "1001/24000",
			"codec_tag_string": "[0][0][0][0]",
			"codec_tag": "0x0000",
			"width": 3840,
			"height": 2160,
			"coded_width": 3840,
			"coded_height": 2160,
			"has_b_frames": 1,
			"sample_aspect_ratio": "1:1",
			"display_aspect_ratio": "16:9",
			"pix_fmt": "yuv420p10le",
			"level": 153,
			"color_range": "tv",
			"color_space": "bt2020nc",
			"color_transfer": "smpte2084",
			"color_primaries": "bt2020",
			"chroma_location": "topleft",
			"refs": 1,
			"r_frame_rate": "24000/1001",
			"avg_frame_rate": "24000/1001",
			"time_base": "1/1000",
			"start_pts": 0,
			"start_time": "0.000000",
			"disposition": {
				"default": 0,
				"dub": 0,
				"original": 0,
				"comment": 0,
				"lyrics": 0,
				"karaoke": 0,
				"forced": 0,
				"hearing_impaired": 0,
				"visual_impaired": 0,
				"clean_effects": 0,
				"attached_pic": 0,
				"timed_thumbnails": 0
			},
			"tags": {
				"language": "eng",
				"title": "Tenet.2020.IMAX.2160p.BluRay.REMUX.HEVC.DTS-HD.MA.5.1-FGT",
				"BPS-eng": "57451721",
				"DURATION-eng": "02:30:10.001000000",
				"NUMBER_OF_FRAMES-eng": "216024",
				"NUMBER_OF_BYTES-eng": "64705008626",
				"SOURCE_ID-eng": "001011",
				"_STATISTICS_WRITING_APP-eng": "mkvmerge v49.0.0 ('Sick Of Losing Soulmates') 64-bit",
				"_STATISTICS_WRITING_DATE_UTC-eng": "2020-12-05 11:55:37",
				"_STATISTICS_TAGS-eng": "BPS DURATION NUMBER_OF_FRAMES NUMBER_OF_BYTES SOURCE_ID"
			}
		},
		{
			"index": 1,
			"codec_name": "dts",
			"codec_long_name": "unknown",
			"profile": "60",
			"codec_type": "audio",
			"codec_time_base": "1/48000",
			"codec_tag_string": "[0][0][0][0]",
			"codec_tag": "0x0000",
			"sample_fmt": "s32p",
			"sample_rate": "48000",
			"channels": 6,
			"channel_layout": "5.1(side)",
			"bits_per_sample": 0,
			"r_frame_rate": "0/0",
			"avg_frame_rate": "0/0",
			"time_base": "1/1000",
			"start_pts": 0,
			"start_time": "0.000000",
			"bits_per_raw_sample": "24",
			"disposition": {
				"default": 1,
				"dub": 0,
				"original": 0,
				"comment": 0,
				"lyrics": 0,
				"karaoke": 0,
				"forced": 0,
				"hearing_impaired": 0,
				"visual_impaired": 0,
				"clean_effects": 0,
				"attached_pic": 0,
				"timed_thumbnails": 0
			},
			"tags": {
				"language": "eng",
				"title": "Tenet.2020.IMAX.2160p.BluRay.REMUX.HEVC.DTS-HD.MA.5.1-FGT",
				"BPS-eng": "4035689",
				"DURATION-eng": "02:30:10.006000000",
				"NUMBER_OF_FRAMES-eng": "844688",
				"NUMBER_OF_BYTES-eng": "4545197764",
				"SOURCE_ID-eng": "001100",
				"_STATISTICS_WRITING_APP-eng": "mkvmerge v49.0.0 ('Sick Of Losing Soulmates') 64-bit",
				"_STATISTICS_WRITING_DATE_UTC-eng": "2020-12-05 11:55:37",
				"_STATISTICS_TAGS-eng": "BPS DURATION NUMBER_OF_FRAMES NUMBER_OF_BYTES SOURCE_ID"
			}
		},
		{
			"index": 2,
			"codec_name": "ac3",
			"codec_long_name": "unknown",
			"codec_type": "audio",
			"codec_time_base": "1/48000",
			"codec_tag_string": "[0][0][0][0]",
			"codec_tag": "0x0000",
			"sample_fmt": "fltp",
			"sample_rate": "48000",
			"channels": 6,
			"channel_layout": "5.1(side)",
			"bits_per_sample": 0,
			"dmix_mode": "-1",
			"ltrt_cmixlev": "-1.000000",
			"ltrt_surmixlev": "-1.000000",
			"loro_cmixlev": "-1.000000",
			"loro_surmixlev": "-1.000000",
			"r_frame_rate": "0/0",
			"avg_frame_rate": "0/0",
			"time_base": "1/1000",
			"start_pts": 0,
			"start_time": "0.000000",
			"bit_rate": "640000",
			"disposition": {
				"default": 0,
				"dub": 0,
				"original": 0,
				"comment": 0,
				"lyrics": 0,
				"karaoke": 0,
				"forced": 0,
				"hearing_impaired": 0,
				"visual_impaired": 0,
				"clean_effects": 0,
				"attached_pic": 0,
				"timed_thumbnails": 0
			},
			"tags": {
				"language": "eng",
				"title": "Tenet.2020.IMAX.2160p.BluRay.REMUX.HEVC.DTS-HD.MA.5.1-FGT",
				"BPS-eng": "640000",
				"DURATION-eng": "02:30:10.016000000",
				"NUMBER_OF_FRAMES-eng": "281563",
				"NUMBER_OF_BYTES-eng": "720801280",
				"SOURCE_ID-eng": "001101",
				"_STATISTICS_WRITING_APP-eng": "mkvmerge v49.0.0 ('Sick Of Losing Soulmates') 64-bit",
				"_STATISTICS_WRITING_DATE_UTC-eng": "2020-12-05 11:55:37",
				"_STATISTICS_TAGS-eng": "BPS DURATION NUMBER_OF_FRAMES NUMBER_OF_BYTES SOURCE_ID"
			}
		},
		{
			"index": 3,
			"codec_name": "ac3",
			"codec_long_name": "unknown",
			"codec_type": "audio",
			"codec_time_base": "1/48000",
			"codec_tag_string": "[0][0][0][0]",
			"codec_tag": "0x0000",
			"sample_fmt": "fltp",
			"sample_rate": "48000",
			"channels": 6,
			"channel_layout": "5.1(side)",
			"bits_per_sample": 0,
			"dmix_mode": "-1",
			"ltrt_cmixlev": "-1.000000",
			"ltrt_surmixlev": "-1.000000",
			"loro_cmixlev": "-1.000000",
			"loro_surmixlev": "-1.000000",
			"r_frame_rate": "0/0",
			"avg_frame_rate": "0/0",
			"time_base": "1/1000",
			"start_pts": 0,
			"start_time": "0.000000",
			"bit_rate": "448000",
			"disposition": {
				"default": 0,
				"dub": 0,
				"original": 0,
				"comment": 0,
				"lyrics": 0,
				"karaoke": 0,
				"forced": 0,
				"hearing_impaired": 0,
				"visual_impaired": 0,
				"clean_effects": 0,
				"attached_pic": 0,
				"timed_thumbnails": 0
			},
			"tags": {
				"language": "fre",
				"title": "Tenet.2020.IMAX.2160p.BluRay.REMUX.HEVC.DTS-HD.MA.5.1-FGT",
				"BPS-eng": "448000",
				"DURATION-eng": "02:30:10.016000000",
				"NUMBER_OF_FRAMES-eng": "281563",
				"NUMBER_OF_BYTES-eng": "504560896",
				"SOURCE_ID-eng": "001102",
				"_STATISTICS_WRITING_APP-eng": "mkvmerge v49.0.0 ('Sick Of Losing Soulmates') 64-bit",
				"_STATISTICS_WRITING_DATE_UTC-eng": "2020-12-05 11:55:37",
				"_STATISTICS_TAGS-eng": "BPS DURATION NUMBER_OF_FRAMES NUMBER_OF_BYTES SOURCE_ID"
			}
		},
		{
			"index": 4,
			"codec_name": "dts",
			"codec_long_name": "unkno wn",
			"profile": "60",
			"codec_type": "audio",
			"codec_time_base": "1/48000",
			"codec_tag_string": "[0][0][0][0]",
			"codec_tag": "0x0000",
			"sample_fmt": "s16p",
			"sample_rate": "48000",
			"channels": 6,
			"channel_layout": "5.1(side)",
			"bits_per_sample": 0,
			"r_frame_rate": "0/0",
			"avg_frame_rate": "0/0",
			"time_base": "1/1000",
			"start_pts": 0,
			"start_time": "0.000000",
			"bits_per_raw_sample": "16",
			"disposition": {
				"default": 0,
				"dub": 0,
				"original": 0,
				"comment": 0,
				"lyrics": 0,
				"karaoke": 0,
				"forced": 0,
				"hearing_impaired": 0,
				"visual_impaired": 0,
				"clean_effects": 0,
				"attached_pic": 0,
				"timed_thumbnails": 0
			},
			"tags": {
				"language": "fre",
				"title": "Tenet.2020.IMAX.2160p.BluRay.REMUX.HEVC.DTS-HD.MA.5.1-FGT",
				"BPS-eng": "2376012",
				"DURATION-eng": "02:30:10.006000000",
				"NUMBER_OF_FRAMES-eng": "844688",
				"NUMBER_OF_BYTES-eng": "2675986404",
				"SOURCE_ID-eng": "001103",
				"_STATISTICS_WRITING_APP-eng": "mkvmerge v49.0.0 ('Sick Of Losing Soulmates') 64-bit",
				"_STATISTICS_WRITING_DATE_UTC-eng": "2020-12-05 11:55:37",
				"_STATISTICS_TAGS-eng": "BPS DURATION NUMBER_OF_FRAMES NUMBER_OF_BYTES SOURCE_ID"
			}
		},
		{
			"index": 5,
			"codec_name": "dts",
			"codec_long_name": "unknown",
			"profile": "60",
			"codec_type": "audio",
			"codec_time_base": "1/48000",
			"codec_tag_string": "[0][0][0][0]",
			"codec_tag": "0x0000",
			"sample_fmt": "s16p",
			"sample_rate": "48000",
			"channels": 6,
			"channel_layout": "5.1(side)",
			"bits_per_sample": 0,
			"r_frame_rate": "0/0",
			"avg_frame_rate": "0/0",
			"time_base": "1/1000",
			"start_pts": 0,
			"start_time": "0.000000",
			"bits_per_raw_sample": "16",
			"disposition": {
				"default": 0,
				"dub": 0,
				"original": 0,
				"comment": 0,
				"lyrics": 0,
				"karaoke": 0,
				"forced": 0,
				"hearing_impaired": 0,
				"visual_impaired": 0,
				"clean_effects": 0,
				"attached_pic": 0,
				"timed_thumbnails": 0
			},
			"tags": {
				"language": "ger",
				"title": "Tenet.2020.IMAX.2160p.BluRay.REMUX.HEVC.DTS-HD.MA.5.1-FGT",
				"BPS-eng": "2367329",
				"DURATION-eng": "02:30:10.006000000",
				"NUMBER_OF_FRAMES-eng": "844688",
				"NUMBER_OF_BYTES-eng": "2666206292",
				"SOURCE_ID-eng": "001104",
				"_STATISTICS_WRITING_APP-eng": "mkvmerge v49.0.0 ('Sick Of Losing Soulmates') 64-bit",
				"_STATISTICS_WRITING_DATE_UTC-eng": "2020-12-05 11:55:37",
				"_STATISTICS_TAGS-eng": "BPS DURATION NUMBER_OF_FRAMES NUMBER_OF_BYTES SOURCE_ID"
			}
		},
		{
			"index": 6,
			"codec_name": "ac3",
			"codec_long_name": "unknown",
			"codec_type": "audio",
			"codec_time_base": "1/48000",
			"codec_tag_string": "[0][0][0][0]",
			"codec_tag": "0x0000",
			"sample_fmt": "fltp",
			"sample_rate": "48000",
			"channels": 2,
			"channel_layout": "stereo",
			"bits_per_sample": 0,
			"dmix_mode": "-1",
			"ltrt_cmixlev": "-1.000000",
			"ltrt_surmixlev": "-1.000000",
			"loro_cmixlev": "-1.000000",
			"loro_surmixlev": "-1.000000",
			"r_frame_rate": "0/0",
			"avg_frame_rate": "0/0",
			"time_base": "1/1000",
			"start_pts": 0,
			"start_time": "0.000000",
			"bit_rate": "192000",
			"disposition": {
				"default": 0,
				"dub": 0,
				"original": 0,
				"comment": 0,
				"lyrics": 0,
				"karaoke": 0,
				"forced": 0,
				"hearing_impaired": 0,
				"visual_impaired": 0,
				"clean_effects": 0,
				"attached_pic": 0,
				"timed_thumbnails": 0
			},
			"tags": {
				"language": "ger",
				"title": "Tenet.2020.IMAX.2160p.BluRay.REMUX.HEVC.DTS-HD.MA.5.1-FGT",
				"BPS-eng": "192000",
				"DURATION-eng": "02:30:10.016000000",
				"NUMBER_OF_FRAMES-eng": "281563",
				"NUMBER_OF_BYTES-eng": "216240384",
				"SOURCE_ID-eng": "001105",
				"_STATISTICS_WRITING_APP-eng": "mkvmerge v49.0.0 ('Sick Of Losing Soulmates') 64-bit",
				"_STATISTICS_WRITING_DATE_UTC-eng": "2020-12-05 11:55:37",
				"_STATISTICS_TAGS-eng": "BPS DURATION NUMBER_OF_FRAMES NUMBER_OF_BYTES SOURCE_ID"
			}
		},
		{
			"index": 7,
			"codec_name": "ac3",
			"codec_long_name": "unknown",
			"codec_type": "audio",
			"codec_time_base": "1/48000",
			"codec_tag_string": "[0][0][0][0]",
			"codec_tag": "0x0000",
			"sample_fmt": "fltp",
			"sample_rate": "48000",
			"channels": 6,
			"channel_layout": "5.1(side)",
			"bits_per_sample": 0,
			"dmix_mode": "-1",
			"ltrt_cmixlev": "-1.000000",
			"ltrt_surmixlev": "-1.000000",
			"loro_cmixlev": "-1.000000",
			"loro_surmixlev": "-1.000000",
			"r_frame_rate": "0/0",
			"avg_frame_rate": "0/0",
			"time_base": "1/1000",
			"start_pts": 0,
			"start_time": "0.000000",
			"bit_rate": "640000",
			"disposition": {
				"default": 0,
				"dub": 0,
				"original": 0,
				"comment": 0,
				"lyrics": 0,
				"karaoke": 0,
				"forced": 0,
				"hearing_impaired": 0,
				"visual_impaired": 0,
				"clean_effects": 0,
				"attached_pic": 0,
				"timed_thumbnails": 0
			},
			"tags": {
				"language": "ita",
				"title": "Tenet.2020.IMAX.2160p.BluRay.REMUX.HEVC.DTS-HD.MA.5.1-FGT",
				"BPS-eng": "640000",
				"DURATION-eng": "02:30:10.016000000",
				"NUMBER_OF_FRAMES-eng": "281563",
				"NUMBER_OF_BYTES-eng": "720801280",
				"SOURCE_ID-eng": "001106",
				"_STATISTICS_WRITING_APP-eng": "mkvmerge v49.0.0 ('Sick Of Losing Soulmates') 64-bit",
				"_STATISTICS_WRITING_DATE_UTC-eng": "2020-12-05 11:55:37",
				"_STATISTICS_TAGS-eng": "BPS DURATION NUMBER_OF_FRAMES NUMBER_OF_BYTES SOURCE_ID"
			}
		},
		{
			"index": 8,
			"codec_name": "ac3",
			"codec_long_name": "unknown",
			"codec_type": "audio",
			"codec_time_base": "1/48000",
			"codec_tag_string": "[0][0][0][0]",
			"codec_tag": "0x0000",
			"sample_fmt": "fltp",
			"sample_rate": "48000",
			"channels": 6,
			"channel_layout": "5.1(side)",
			"bits_per_sample": 0,
			"dmix_mode": "-1",
			"ltrt_cmixlev": "-1.000000",
			"ltrt_surmixlev": "-1.000000",
			"lo ro_cmixlev": "-1.000000",
			"loro_surmixlev": "-1.000000",
			"r_frame_rate": "0/0",
			"avg_frame_rate": "0/0",
			"time_base": "1/1000",
			"start_pts": 0,
			"start_time": "0.000000",
			"bit_rate": "640000",
			"disposition": {
				"default": 0,
				"dub": 0,
				"original": 0,
				"comment": 0,
				"lyrics": 0,
				"karaoke": 0,
				"forced": 0,
				"hearing_impaired": 0,
				"visual_impaired": 0,
				"clean_effects": 0,
				"attached_pic": 0,
				"timed_thumbnails": 0
			},
			"tags": {
				"language": "spa",
				"title": "Tenet.2020.IMAX.2160p.BluRay.REMUX.HEVC.DTS-HD.MA.5.1-FGT",
				"BPS-eng": "640000",
				"DURATION-eng": "02:30:10.016000000",
				"NUMBER_OF_FRAMES-eng": "281563",
				"NUMBER_OF_BYTES-eng": "720801280",
				"SOURCE_ID-eng": "001107",
				"_STATISTICS_WRITING_APP-eng": "mkvmerge v49.0.0 ('Sick Of Losing Soulmates') 64-bit",
				"_STATISTICS_WRITING_DATE_UTC-eng": "2020-12-05 11:55:37",
				"_STATISTICS_TAGS-eng": "BPS DURATION NUMBER_OF_FRAMES NUMBER_OF_BYTES SOURCE_ID"
			}
		},
		{
			"index": 9,
			"codec_name": "ac3",
			"codec_long_name": "unknown",
			"codec_type": "audio",
			"codec_time_base": "1/48000",
			"codec_tag_string": "[0][0][0][0]",
			"codec_tag": "0x0000",
			"sample_fmt": "fltp",
			"sample_rate": "48000",
			"channels": 6,
			"channel_layout": "5.1(side)",
			"bits_per_sample": 0,
			"dmix_mode": "-1",
			"ltrt_cmixlev": "-1.000000",
			"ltrt_surmixlev": "-1.000000",
			"loro_cmixlev": "-1.000000",
			"loro_surmixlev": "-1.000000",
			"r_frame_rate": "0/0",
			"avg_frame_rate": "0/0",
			"time_base": "1/1000",
			"start_pts": 0,
			"start_time": "0.000000",
			"bit_rate": "640000",
			"disposition": {
				"default": 0,
				"dub": 0,
				"original": 0,
				"comment": 0,
				"lyrics": 0,
				"karaoke": 0,
				"forced": 0,
				"hearing_impaired": 0,
				"visual_impaired": 0,
				"clean_effects": 0,
				"attached_pic": 0,
				"timed_thumbnails": 0
			},
			"tags": {
				"language": "spa",
				"title": "Tenet.2020.IMAX.2160p.BluRay.REMUX.HEVC.DTS-HD.MA.5.1-FGT",
				"BPS-eng": "640000",
				"DURATION-eng": "02:30:10.016000000",
				"NUMBER_OF_FRAMES-eng": "281563",
				"NUMBER_OF_BYTES-eng": "720801280",
				"SOURCE_ID-eng": "001108",
				"_STATISTICS_WRITING_APP-eng": "mkvmerge v49.0.0 ('Sick Of Losing Soulmates') 64-bit",
				"_STATISTICS_WRITING_DATE_UTC-eng": "2020-12-05 11:55:37",
				"_STATISTICS_TAGS-eng": "BPS DURATION NUMBER_OF_FRAMES NUMBER_OF_BYTES SOURCE_ID"
			}
		},
		{
			"index": 10,
			"codec_name": "ac3",
			"codec_long_name": "unknown",
			"codec_type": "audio",
			"codec_time_base": "1/48000",
			"codec_tag_string": "[0][0][0][0]",
			"codec_tag": "0x0000",
			"sample_fmt": "fltp",
			"sample_rate": "48000",
			"channels": 6,
			"channel_layout": "5.1(side)",
			"bits_per_sample": 0,
			"dmix_mode": "-1",
			"ltrt_cmixlev": "-1.000000",
			"ltrt_surmixlev": "-1.000000",
			"loro_cmixlev": "-1.000000",
			"loro_surmixlev": "-1.000000",
			"r_frame_rate": "0/0",
			"avg_frame_rate": "0/0",
			"time_base": "1/1000",
			"start_pts": 0,
			"start_time": "0.000000",
			"bit_rate": "640000",
			"disposition": {
				"default": 0,
				"dub": 0,
				"original": 0,
				"comment": 0,
				"lyrics": 0,
				"karaoke": 0,
				"forced": 0,
				"hearing_impaired": 0,
				"visual_impaired": 0,
				"clean_effects": 0,
				"attached_pic": 0,
				"timed_thumbnails": 0
			},
			"tags": {
				"language": "cze",
				"title": "Tenet.2020.IMAX.2160p.BluRay.REMUX.HEVC.DTS-HD.MA.5.1-FGT",
				"BPS-eng": "640000",
				"DURATION-eng": "02:30:10.016000000",
				"NUMBER_OF_FRAMES-eng": "281563",
				"NUMBER_OF_BYTES-eng": "720801280",
				"SOURCE_ID-eng": "001109",
				"_STATISTICS_WRITING_APP-eng": "mkvmerge v49.0.0 ('Sick Of Losing Soulmates') 64-bit",
				"_STATISTICS_WRITING_DATE_UTC-eng": "2020-12-05 11:55:37",
				"_STATISTICS_TAGS-eng": "BPS DURATION NUMBER_OF_FRAMES NUMBER_OF_BYTES SOURCE_ID"
			}
		},
		{
			"index": 11,
			"codec_name": "ac3",
			"codec_long_name": "unknown",
			"codec_type": "audio",
			"codec_time_base": "1/48000",
			"codec_tag_string": "[0][0][0][0]",
			"codec_tag": "0x0000",
			"sample_fmt": "fltp",
			"sample_rate": "48000",
			"channels": 6,
			"channel_layout": "5.1(side)",
			"bits_per_sample": 0,
			"dmix_mode": "-1",
			"ltrt_cmixlev": "-1.000000",
			"ltrt_surmixlev": "-1.000000",
			"loro_cmixlev": "-1.000000",
			"loro_surmixlev": "-1.000000",
			"r_frame_rate": "0/0",
			"avg_frame_rate": "0/0",
			"time_base": "1/1000",
			"start_pts": 0,
			"start_time": "0.000000",
			"bit_rate": "640000",
			"disposition": {
				"default": 0,
				"dub": 0,
				"original": 0,
				"comment": 0,
				"lyrics": 0,
				"karaoke": 0,
				"forced": 0,
				"hearing_impaired": 0,
				"visual_impaired": 0,
				"clean_effects": 0,
				"attached_pic": 0,
				"timed_thumbnails": 0
			},
			"tags": {
				"language": "hin",
				"title": "Tenet.2020.IMAX.2160p.BluRay.REMUX.HEVC.DTS-HD.MA.5.1-FGT",
				"BPS-eng": "640000",
				"DURATION-eng": "02:30:10.016000000",
				"NUMBER_OF_FRAMES-eng": "281563",
				"NUMBER_OF_BYTES-eng": "720801280",
				"SOURCE_ID-eng": "00110A",
				"_STATISTICS_WRITING_APP-eng": "mkvmerge v49.0.0 ('Sick Of Losing Soulmates') 64-bit",
				"_STATISTICS_WRITING_DATE_UTC-eng": "2020-12-05 11:55:37",
				"_STATISTICS_TAGS-eng": "BPS DURATION NUMBER_OF_FRAMES NUMBER_OF_BYTES SOURCE_ID"
			}
		},
		{
			"index": 12,
			"codec_name": "ac3",
			"codec_long_name": "unknown",
			"codec_type": "audio",
			"codec_time_base": "1/48000",
			"codec_tag_string": "[0][0][0][0]",
			"codec_tag": "0x0000",
			"sample_fmt": "fltp",
			"sample_rate": "48000",
			"channels": 6,
			"channel_layout": "5.1(side)",
			"bits_per_sample": 0,
			"dmix_mode": "-1",
			"ltrt_cmixlev": "-1.000000",
			"ltrt_surmixlev": "-1.000000",
			"loro_cmixlev": "-1.000000",
			"loro_surmixlev": "-1.000000",
			"r_frame_rate": "0/0",
			"avg_frame_rate": "0/0",
			"time_base": "1/1000",
			"start_pts": 0,
			"start_time": "0.000000",
			"bit_rate": "640000",
			"disposition": {
				"default": 0,
				"dub": 0,
				"original": 0,
				"comment": 0,
				"lyrics": 0,
				"karaoke": 0,
				"forced": 0,
				"hearing_impaired": 0,
				"visual_impaired": 0,
				"clean_effects": 0,
				"attached_pic": 0,
				"timed_thumbnails": 0
			},
			"tags": {
				"language": "pol",
				"title": "Tenet.2020.IMAX.2160p.BluRay.REMUX.HEVC.DTS-HD.MA.5.1-FGT",
				"BPS-eng": "640000",
				"DURATION-eng": "02:30:10.016000000",
				"NUMBER_OF_FRAMES-eng": "281563",
				"NUMBER_OF_BYTES-eng": "720801280",
				"SOURCE_ID-eng": "00110B",
				"_STATISTICS_WRITING_APP-eng": "mkvmerge v49.0.0 ('Sick Of Losing Soulmates') 64-bit",
				"_STATISTICS_WRITING_DATE_UTC-eng": "2020-12-05 11:55:37",
				"_STATISTICS_TAGS-eng": "BPS DURATION NUMBER_OF_FRAMES NUMBER_OF_BYTES SOURCE_ID"
			}
		},
		{
			"index": 13,
			"codec_name": "ac3",
			"codec_long_name": "unknown",
			"codec_type": "audio",
			"codec_time_base": "1/48000",
			"codec_tag_string": "[0][0][0][0]",
			"codec_tag": "0x0000",
			"sample_fmt": "fltp",
			"sample_rate": "48000",
			"channels": 6,
			"channel_layout": "5.1(side)",
			"bits_per_sample": 0,
			"dmix_mode": "-1",
			"ltrt_cmixlev": "-1.000000",
			"ltrt_surmixlev": "-1.000000",
			"loro_cmixlev": "-1.000000",
			"loro_surmixlev": "-1.000000",
			"r_frame_rate": "0/0",
			"avg_frame_rate": "0/0",
			"time_base": "1/1000",
			"start_pts": 0,
			"start_time": "0.000000",
			"bit_rate": "640000",
			"disposition": {
				"default": 0,
				"dub": 0,
				"original": 0,
				"comment": 0,
				"lyrics": 0,
				"karaoke": 0,
				"forced": 0,
				"hearing_impaired": 0,
				"visual_impaired": 0,
				"clean_effects": 0,
				"attached_pic": 0,
				"timed_thumbnails": 0
			},
			"tags": {
				"language": "tha",
				"title": "Tenet.2020.IMAX.2160p.BluRay.REMUX.HEVC.DTS-HD.MA.5.1-FGT",
				"BPS-eng": "640000",
				"DURATION-eng": "02:30:10.016000000",
				"NUMBER_OF_FRAMES-eng": "281563",
				"NUMBER_OF_BYTES-eng": "720801280",
				"SOURCE_ID-eng": "00110C",
				"_STATISTICS_WRITING_APP-eng": "mkvmerge v49.0.0 ('Sick Of Losing Soulmates') 64-bit",
				"_STATISTICS_WRITING_DATE_UTC-eng": "2020-12-05 11:55:37",
				"_STATISTICS_TAGS-eng": "BPS DURATION NUMBER_OF_FRAMES NUMBER_OF_BYTES SOURCE_ID"
			}
		},
		{
			"index": 14,
			"codec_name": "ac3",
			"codec_long_name": "unknown",
			"codec_type": "audio",
			"codec_time_base": "1/48000",
			"codec_tag_string": "[0][0][0][0]",
			"codec_tag": "0x0000",
			"sample_fmt": "fltp",
			"sample_rate": "48000",
			"channels": 6,
			"channel_layout": "5.1(side)",
			"bits_per_sample": 0,
			"dmix_mode": "-1",
			"ltrt_cmixlev": "-1.000000",
			"ltrt_surmixlev": "-1.000000",
			"loro_cmixlev": "-1.000000",
			"loro_surmixlev": "-1.000000",
			"r_frame_rate": "0/0",
			"avg_frame_rate": "0/0",
			"time_base": "1/1000",
			"start_pts": 0,
			"start_time": "0.000000",
			"bit_rate": "640000",
			"disposition": {
				"default": 0,
				"dub": 0,
				"original": 0,
				"comment": 0,
				"lyrics": 0,
				"karaoke": 0,
				"forced": 0,
				"hearing_impaired": 0,
				"visual_impaired": 0,
				"clean_effects": 0,
				"attached_pic": 0,
				"timed_thumbnails": 0
			},
			"tags": {
				"language": "jpn",
				"title": "Tenet.2020.IMAX.2160p.BluRay.REMUX.HEVC.DTS-HD.MA.5.1-FGT",
				"BPS-eng": "640000",
				"DURATION-eng": "02:30:10.016000000",
				"NUMBER_OF_FRAMES-eng": "281563",
				"NUMBER_OF_BYTES-eng": "720801280",
				"SOURCE_ID-eng": "00110D",
				"_STATISTICS_WRITING_APP-eng": "mkvmerge v49.0.0 ('Sick Of Losing Soulmates') 64-bit",
				"_STATISTICS_WRITING_DATE_UTC-eng": "2020-12-05 11:55:37",
				"_STATISTICS_TAGS-eng": "BPS DURATION NUMBER_OF_FRAMES NUMBER_OF_BYTES SOURCE_ID"
			}
		},
		{
			"index": 15,
			"codec_name": "subrip",
			"codec_long_name": "unknown",
			"codec_type": "subtitle",
			"codec_time_base": "0/1",
			"codec_tag_string": "[0][0][0][0]",
			"codec_tag": "0x0000",
			"r_frame_rate": "0/0",
			"avg_frame_rate": "0/0",
			"time_base": "1/1000",
			"start_pts": 0,
			"start_time": "0.000000",
			"duration_ts": 9010016,
			"duration": "9010.016000",
			"disposition": {
				"default": 1,
				"dub": 0,
				"original": 0,
				"comment": 0,
				"lyrics": 0,
				"karaoke": 0,
				"forced": 0,
				"hearing_impaired": 0,
				"visual_impaired": 0,
				"clean_effects": 0,
				"attached_pic": 0,
				"timed_thumbnails": 0
			},
			"tags": {
				"language": "eng",
				"title": "English-SRT",
				"BPS-eng": "52",
				"DURATION-eng": "02:25:45.017000000",
				"NUMBER_OF_FRAMES-eng": "1872",
				"NUMBER_OF_BYTES-eng": "56926",
				"_STATISTICS_WRITING_APP-eng": "mkvmerge v49.0.0 ('Sick Of Losing Soulmates') 64-bit",
				"_STATISTICS_WRITING_DATE_UTC-eng": "2020-12-05 11:55:37",
				"_STATISTICS_TAGS-eng": "BPS DURATION NUMBER_OF_FRAMES NUMBER_OF_BYTES"
			}
		},
		{
			"index": 16,
			"codec_name": "hdmv_pgs_subtitle",
			"codec_long_name": "unknown",
			"codec_type": "subtitle",
			"codec_time_base": "0/1",
			"codec_tag_string": "[0][0][0][0]",
			"codec_tag": "0x0000",
			"r_frame_rate": "0/0",
			"avg_frame_rate": "0/0",
			"time_base": "1/1000",
			"start_pts": 0,
			"start_time": "0.000000",
			"duration_ts": 9010016,
			"duration": "9010.016000",
			"disposition": {
				"default": 0,
				"dub": 0,
				"original": 0,
				"comment": 0,
				"lyrics": 0,
				"karaoke": 0,
				"forced": 0,
				"hearing_impaired": 0,
				"visual_impaired": 0,
				"clean_effects": 0,
				"attached_pic": 0,
				"timed_thumbnails": 0
			},
			"tags": {
				"language": "eng",
				"title": "English-PGS",
				"BPS-eng": "36432",
				"DURATION-eng": "02:26:53.743000000",
				"NUMBER_OF_FRAMES-eng": "4274",
				"NUMBER_OF_BYTES-eng": "40138396",
				"SOURCE_ID-eng": "0012A0",
				"_STATISTICS_WRITING_APP-eng": "mkvmerge v49.0.0 ('Sick Of Losing Soulmates') 64-bit",
				"_STATISTICS_WRITING_DATE_UTC-eng": "2020-12-05 11:55:37",
				"_STATISTICS_TAGS-eng": "BPS DURATION NUMBER_OF_FRAMES NUMBER_OF_BYTES SOURCE_ID"
			}
		},
		{
			"index": 17,
			"codec_name": "hdmv_pgs_subtitle",
			"codec_long_name": "unknown",
			"codec_type": "subtitle",
			"codec_time_base": "0/1",
			"codec_tag_string": "[0][0][0][0]",
			"codec_tag": "0x0000",
			"r_frame_rate": "0/0",
			"avg_frame_rate": "0/0",
			"time_base": "1/1000",
			"start_pts": 0,
			"start_time": "0.000000",
			"duration_ts": 9010016,
			"duration": "9010.016000",
			"disposition": {
				"default": 0,
				"dub": 0,
				"original": 0,
				"comment": 0,
				"lyrics": 0,
				"karaoke": 0,
				"forced": 0,
				"hearing_impaired": 0,
				"visual_impaired": 0,
				"clean_effects": 0,
				"attached_pic": 0,
				"timed_thumbnails": 0
			},
			"tags": {
				"language": "fre",
				"title": "French-PGS",
				"BPS-eng": "26048",
				"DURATION-eng": "02:28:33.508000000",
				"NUMBER_OF_FRAMES-eng": "3586",
				"NUMBER_OF_BYTES-eng": "29022865",
				"SOURCE_ID-eng": "0012A1",
				"_STATISTICS_WRITING_APP-eng": "mkvmerge v49.0.0 ('Sick Of Losing Soulmates') 64-bit",
				"_STATISTICS_WRITING_DATE_UTC-eng": "2020-12-05 11:55:37",
				"_STATISTICS_TAGS-eng": "BPS DURATION NUMBER_OF_FRAMES NUMBER_OF_BYTES SOURCE_ID"
			}
		},
		{
			"index": 18,
			"codec_name": "hdmv_pgs_subtitle",
			"codec_long_name": "unknown",
			"codec_type": "subtitle",
			"codec_time_base": "0/1",
			"codec_tag_string": "[0][0][0][0]",
			"codec_tag": "0x0000",
			"r_frame_rate": "0/0",
			"avg_frame_rate": "0/0",
			"time_base": "1/1000",
			"start_pts": 0,
			"start_time": "0.000000",
			"duration_ts": 9010016,
			"duration": "9010.016000",
			"disposition": {
				"default": 0,
				"dub": 0,
				"original": 0,
				"comment": 0,
				"lyrics": 0,
				"karaoke": 0,
				"forced": 0,
				"hearing_impaired": 0,
				"visual_impaired": 0,
				"clean_effects": 0,
				"attached_pic": 0,
				"timed_thumbnails": 0
			},
			"tags": {
				"language": "ger",
				"title": "German-PGS",
				"BPS-eng": "37771",
				"DURATION-eng": "02:24:04.782000000",
				"NUMBER_OF_FRAMES-eng": "4126",
				"NUMBER_OF_BYTES-eng": "40815346",
				"SOURCE_ID-eng": "0012A2",
				"_STATISTICS_WRITING_APP-eng": "mkvmerge v49.0.0 ('Sick Of Losing Soulmates') 64-bit",
				"_STATISTICS_WRITING_DATE_UTC-eng": "2020-12-05 11:55:37",
				"_STATISTICS_TAGS-eng": "BPS DURATION NUMBER_OF_FRAMES NUMBER_OF_BYTES SOURCE_ID"
			}
		},
		{
			"index": 19,
			"codec_name": "hdmv_pgs_subtitle",
			"codec_long_name": "unknown",
			"codec_type": "subtitle",
			"codec_time_base": "0/1",
			"codec_tag_string": "[0][0][0][0]",
			"codec_tag": "0x0000",
			"r_frame_rate": "0/0",
			"avg_frame_rate": "0/0",
			"time_base": "1/1000",
			"start_pts": 0,
			"start_time": "0.000000",
			"duration_ts": 9010016,
			"dur ation": "9010.016000",
			"disposition": {
				"default": 0,
				"dub": 0,
				"original": 0,
				"comment": 0,
				"lyrics": 0,
				"karaoke": 0,
				"forced": 0,
				"hearing_impaired": 0,
				"visual_impaired": 0,
				"clean_effects": 0,
				"attached_pic": 0,
				"timed_thumbnails": 0
			},
			"tags": {
				"language": "ita",
				"title": "Italian-PGS",
				"BPS-eng": "35465",
				"DURATION-eng": "02:24:04.782000000",
				"NUMBER_OF_FRAMES-eng": "4220",
				"NUMBER_OF_BYTES-eng": "38324215",
				"SOURCE_ID-eng": "0012A3",
				"_STATISTICS_WRITING_APP-eng": "mkvmerge v49.0.0 ('Sick Of Losing Soulmates') 64-bit",
				"_STATISTICS_WRITING_DATE_UTC-eng": "2020-12-05 11:55:37",
				"_STATISTICS_TAGS-eng": "BPS DURATION NUMBER_OF_FRAMES NUMBER_OF_BYTES SOURCE_ID"
			}
		},
		{
			"index": 20,
			"codec_name": "hdmv_pgs_subtitle",
			"codec_long_name": "unknown",
			"codec_type": "subtitle",
			"codec_time_base": "0/1",
			"codec_tag_string": "[0][0][0][0]",
			"codec_tag": "0x0000",
			"r_frame_rate": "0/0",
			"avg_frame_rate": "0/0",
			"time_base": "1/1000",
			"start_pts": 0,
			"start_time": "0.000000",
			"duration_ts": 9010016,
			"duration": "9010.016000",
			"disposition": {
				"default": 0,
				"dub": 0,
				"original": 0,
				"comment": 0,
				"lyrics": 0,
				"karaoke": 0,
				"forced": 0,
				"hearing_impaired": 0,
				"visual_impaired": 0,
				"clean_effects": 0,
				"attached_pic": 0,
				"timed_thumbnails": 0
			},
			"tags": {
				"language": "spa",
				"title": "Spanish-PGS",
				"BPS-eng": "32220",
				"DURATION-eng": "02:28:33.508000000",
				"NUMBER_OF_FRAMES-eng": "3668",
				"NUMBER_OF_BYTES-eng": "35899874",
				"SOURCE_ID-eng": "0012A4",
				"_STATISTICS_WRITING_APP-eng": "mkvmerge v49.0.0 ('Sick Of Losing Soulmates') 64-bit",
				"_STATISTICS_WRITING_DATE_UTC-eng": "2020-12-05 11:55:37",
				"_STATISTICS_TAGS-eng": "BPS DURATION NUMBER_OF_FRAMES NUMBER_OF_BYTES SOURCE_ID"
			}
		},
		{
			"index": 21,
			"codec_name": "hdmv_pgs_subtitle",
			"codec_long_name": "unknown",
			"codec_type": "subtitle",
			"codec_time_base": "0/1",
			"codec_tag_string": "[0][0][0][0]",
			"codec_tag": "0x0000",
			"r_frame_rate": "0/0",
			"avg_frame_rate": "0/0",
			"time_base": "1/1000",
			"start_pts": 0,
			"start_time": "0.000000",
			"duration_ts": 9010016,
			"duration": "9010.016000",
			"disposition": {
				"default": 0,
				"dub": 0,
				"original": 0,
				"comment": 0,
				"lyrics": 0,
				"karaoke": 0,
				"forced": 0,
				"hearing_impaired": 0,
				"visual_impaired": 0,
				"clean_effects": 0,
				"attached_pic": 0,
				"timed_thumbnails": 0
			},
			"tags": {
				"language": "dut",
				"title": "Dutch-PGS",
				"BPS-eng": "29016",
				"DURATION-eng": "02:28:33.508000000",
				"NUMBER_OF_FRAMES-eng": "2790",
				"NUMBER_OF_BYTES-eng": "32329823",
				"SOURCE_ID-eng": "0012A5",
				"_STATI STICS_WRITING_APP-eng": "mkvmerge v49.0.0 ('Sick Of Losing Soulmates') 64-bit",
				"_STATISTICS_WRITING_DATE_UTC-eng": "2020-12-05 11:55:37",
				"_STATISTICS_TAGS-eng": "BPS DURATION NUMBER_OF_FRAMES NUMBER_OF_BYTES SOURCE_ID"
			}
		},
		{
			"index": 22,
			"codec_name": "hdmv_pgs_subtitle",
			"codec_long_name": "unknown",
			"codec_type": "subtitle",
			"codec_time_base": "0/1",
			"codec_tag_string": "[0][0][0][0]",
			"codec_tag": "0x0000",
			"r_frame_rate": "0/0",
			"avg_frame_rate": "0/0",
			"time_base": "1/1000",
			"start_pts": 0,
			"start_time": "0.000000",
			"duration_ts": 9010016,
			"duration": "9010.016000",
			"disposition": {
				"default": 0,
				"dub": 0,
				"original": 0,
				"comment": 0,
				"lyrics": 0,
				"karaoke": 0,
				"forced": 0,
				"hearing_impaired": 0,
				"visual_impaired": 0,
				"clean_effects": 0,
				"attached_pic": 0,
				"timed_thumbnails": 0
			},
			"tags": {
				"language": "chi",
				"title": "Chinese-PGS",
				"BPS-eng": "30864",
				"DURATION-eng": "02:22:49.206000000",
				"NUMBER_OF_FRAMES-eng": "3350",
				"NUMBER_OF_BYTES-eng": "33060988",
				"SOURCE_ID-eng": "0012A6",
				"_STATISTICS_WRITING_APP-eng": "mkvmerge v49.0.0 ('Sick Of Losing Soulmates') 64-bit",
				"_STATISTICS_WRITING_DATE_UTC-eng": "2020-12-05 11:55:37",
				"_STATISTICS_TAGS-eng": "BPS DURATION NUMBER_OF_FRAMES NUMBER_OF_BYTES SOURCE_ID"
			}
		},
		{
			"index": 23,
			"codec_name": "hdmv_pgs_subtitle",
			"codec_long_name": "unknown",
			"codec_type": "subtitle",
			"codec_time_base": "0/1",
			"codec_tag_string": "[0][0][0][0]",
			"codec_tag": "0x0000",
			"r_frame_rate": "0/0",
			"avg_frame_rate": "0/0",
			"time_base": "1/1000",
			"start_pts": 0,
			"start_time": "0.000000",
			"duration_ts": 9010016,
			"duration": "9010.016000",
			"disposition": {
				"default": 0,
				"dub": 0,
				"original": 0,
				"comment": 0,
				"lyrics": 0,
				"karaoke": 0,
				"forced": 0,
				"hearing_impaired": 0,
				"visual_impaired": 0,
				"clean_effects": 0,
				"attached_pic": 0,
				"timed_thumbnails": 0
			},
			"tags": {
				"language": "chi",
				"title": "Chinese-PGS",
				"BPS-eng": "32798",
				"DURATION-eng": "02:22:48.747000000",
				"NUMBER_OF_FRAMES-eng": "3520",
				"NUMBER_OF_BYTES-eng": "35129976",
				"SOURCE_ID-eng": "0012A7",
				"_STATISTICS_WRITING_APP-eng": "mkvmerge v49.0.0 ('Sick Of Losing Soulmates') 64-bit",
				"_STATISTICS_WRITING_DATE_UTC-eng": "2020-12-05 11:55:37",
				"_STATISTICS_TAGS-eng": "BPS DURATION NUMBER_OF_FRAMES NUMBER_OF_BYTES SOURCE_ID"
			}
		},
		{
			"index": 24,
			"codec_name": "hdmv_pgs_subtitle",
			"codec_long_name": "unknown",
			"codec_type": "subtitle",
			"codec_time_base": "0/1",
			"codec_tag_string": "[0][0][0][0]",
			"codec_tag": "0x0000",
			"r_frame_rate": "0/0",
			"avg_frame_rate": "0/0",
			"time_base": "1/1000",
			"start_pts": 0,
			"start_time": "0.000000",
			"duration_ts": 9010016,
			"duration": "9010.016000",
			"disposition": {
				"default": 0,
				"dub": 0,
				"original": 0,
				"comment": 0,
				"lyrics": 0,
				"karaoke": 0,
				"forced": 0,
				"hearing_impaired": 0,
				"visual_impaired": 0,
				"clean_effects": 0,
				"attached_pic": 0,
				"timed_thumbnails": 0
			},
			"tags": {
				"language": "chi",
				"title": "Chinese-PGS",
				"BPS-eng": "29583",
				"DURATION-eng": "02:28:30.839000000",
				"NUMBER_OF_FRAMES-eng": "3640",
				"NUMBER_OF_BYTES-eng": "32952198",
				"SOURCE_ID-eng": "0012A8",
				"_STATISTICS_WRITING_APP-eng": "mkvmerge v49.0.0 ('Sick Of Losing Soulmates') 64-bit",
				"_STATISTICS_WRITING_DATE_UTC-eng": "2020-12-05 11:55:37",
				"_STATISTICS_TAGS-eng": "BPS DURATION NUMBER_OF_FRAMES NUMBER_OF_BYTES SOURCE_ID"
			}
		},
		{
			"index": 25,
			"codec_name": "hdmv_pgs_subtitle",
			"codec_long_name": "unknown",
			"codec_type": "subtitle",
			"codec_time_base": "0/1",
			"codec_tag_string": "[0][0][0][0]",
			"codec_tag": "0x0000",
			"r_frame_rate": "0/0",
			"avg_frame_rate": "0/0",
			"time_base": "1/1000",
			"start_pts": 0,
			"start_time": "0.000000",
			"duration_ts": 9010016,
			"duration": "9010.016000",
			"disposition": {
				"default": 0,
				"dub": 0,
				"original": 0,
				"comment": 0,
				"lyrics": 0,
				"karaoke": 0,
				"forced": 0,
				"hearing_impaired": 0,
				"visual_impaired": 0,
				"clean_effects": 0,
				"attached_pic": 0,
				"timed_thumbnails": 0
			},
			"tags": {
				"language": "kor",
				"title": "Korean-PGS",
				"BPS-eng": "18449",
				"DURATION-eng": "02:28:30.839000000",
				"NUMBER_OF_FRAMES-eng": "3544",
				"NUMBER_OF_BYTES-eng": "20549797",
				"SOURCE_ID-eng": "0012A9",
				"_STATISTICS_WRITING_APP-eng": "mkvmerge v49.0.0 ('Sick Of Losing Soulmates') 64-bit",
				"_STATISTICS_WRITING_DATE_UTC-eng": "2020-12-05 11:55:37",
				"_STATISTICS_TAGS-eng": "BPS DURATION NUMBER_OF_FRAMES NUMBER_OF_BYTES SOURCE_ID"
			}
		},
		{
			"index": 26,
			"codec_name": "hdmv_pgs_subtitle",
			"codec_long_name": "unknown",
			"codec_type": "subtitle",
			"codec_time_base": "0/1",
			"codec_tag_string": "[0][0][0][0]",
			"codec_tag": "0x0000",
			"r_frame_rate": "0/0",
			"avg_frame_rate": "0/0",
			"time_base": "1/1000",
			"start_pts": 0,
			"start_time": "0.000000",
			"duration_ts": 9010016,
			"duration": "9010.016000",
			"disposition": {
				"default": 0,
				"dub": 0,
				"original": 0,
				"comment": 0,
				"lyrics": 0,
				"karaoke": 0,
				"forced": 0,
				"hearing_impaired": 0,
				"visual_impaired": 0,
				"clean_effects": 0,
				"attached_pic": 0,
				"timed_thumbnails": 0
			},
			"tags": {
				"language": "spa",
				"title": "Spanish-PGS",
				"BPS-eng": "33776",
				"DURATION-eng": "02:22:49.164000000",
				"NUMBER_OF_FRAMES-eng": "3656",
				"NUMBER_OF_BYTES-eng": "36179852",
				"SOURCE_ID-eng": "0012AA",
				"_STATISTICS_WRITING_APP-eng ": "mkvmerge v49.0.0 ('Sick Of Losing Soulmates') 64-bit",
				"_STATISTICS_WRITING_DATE_UTC-eng": "2020-12-05 11:55:37",
				"_STATISTICS_TAGS-eng": "BPS DURATION NUMBER_OF_FRAMES NUMBER_OF_BYTES SOURCE_ID"
			}
		},
		{
			"index": 27,
			"codec_name": "hdmv_pgs_subtitle",
			"codec_long_name": "unknown",
			"codec_type": "subtitle",
			"codec_time_base": "0/1",
			"codec_tag_string": "[0][0][0][0]",
			"codec_tag": "0x0000",
			"r_frame_rate": "0/0",
			"avg_frame_rate": "0/0",
			"time_base": "1/1000",
			"start_pts": 0,
			"start_time": "0.000000",
			"duration_ts": 9010016,
			"duration": "9010.016000",
			"disposition": {
				"default": 0,
				"dub": 0,
				"original": 0,
				"comment": 0,
				"lyrics": 0,
				"karaoke": 0,
				"forced": 0,
				"hearing_impaired": 0,
				"visual_impaired": 0,
				"clean_effects": 0,
				"attached_pic": 0,
				"timed_thumbnails": 0
			},
			"tags": {
				"language": "cze",
				"title": "Czech-PGS",
				"BPS-eng": "27415",
				"DURATION-eng": "02:28:33.508000000",
				"NUMBER_OF_FRAMES-eng": "3646",
				"NUMBER_OF_BYTES-eng": "30546358",
				"SOURCE_ID-eng": "0012AB",
				"_STATISTICS_WRITING_APP-eng": "mkvmerge v49.0.0 ('Sick Of Losing Soulmates') 64-bit",
				"_STATISTICS_WRITING_DATE_UTC-eng": "2020-12-05 11:55:37",
				"_STATISTICS_TAGS-eng": "BPS DURATION NUMBER_OF_FRAMES NUMBER_OF_BYTES SOURCE_ID"
			}
		},
		{
			"index": 28,
			"codec_name": "hdmv_pgs_subtitle",
			"codec_long_name": "unknown",
			"codec_type": "subtitle",
			"codec_time_base": "0/1",
			"codec_tag_string": "[0][0][0][0]",
			"codec_tag": "0x0000",
			"r_frame_rate": "0/0",
			"avg_frame_rate": "0/0",
			"time_base": "1/1000",
			"start_pts": 0,
			"start_time": "0.000000",
			"duration_ts": 9010016,
			"duration": "9010.016000",
			"disposition": {
				"default": 0,
				"dub": 0,
				"original": 0,
				"comment": 0,
				"lyrics": 0,
				"karaoke": 0,
				"forced": 0,
				"hearing_impaired": 0,
				"visual_impaired": 0,
				"clean_effects": 0,
				"attached_pic": 0,
				"timed_thumbnails": 0
			},
			"tags": {
				"language": "dan",
				"title": "Danish-PGS",
				"BPS-eng": "29464",
				"DURATION-eng": "02:28:33.508000000",
				"NUMBER_OF_FRAMES-eng": "2554",
				"NUMBER_OF_BYTES-eng": "32828524",
				"SOURCE_ID-eng": "0012AC",
				"_STATISTICS_WRITING_APP-eng": "mkvmerge v49.0.0 ('Sick Of Losing Soulmates') 64-bit",
				"_STATISTICS_WRITING_DATE_UTC-eng": "2020-12-05 11:55:37",
				"_STATISTICS_TAGS-eng": "BPS DURATION NUMBER_OF_FRAMES NUMBER_OF_BYTES SOURCE_ID"
			}
		},
		{
			"index": 29,
			"codec_name": "hdmv_pgs_subtitle",
			"codec_long_name": "unknown",
			"codec_type": "subtitle",
			"codec_time_base": "0/1",
			"codec_tag_string": "[0][0][0][0]",
			"codec_tag": "0x0000",
			"r_frame_rate": "0/0",
			"avg_frame_rate": "0/0",
			"time_base": "1/1000",
			"start_pts": 0,
			"start_time": "0.000000",
			"duration_ts": 9010016,
			"duration": "9010.016000",
			"dispositio n": {
				"default": 0,
				"dub": 0,
				"original": 0,
				"comment": 0,
				"lyrics": 0,
				"karaoke": 0,
				"forced": 0,
				"hearing_impaired": 0,
				"visual_impaired": 0,
				"clean_effects": 0,
				"attached_pic": 0,
				"timed_thumbnails": 0
			},
			"tags": {
				"language": "fin",
				"title": "Finnish-PGS",
				"BPS-eng": "32559",
				"DURATION-eng": "02:28:33.508000000",
				"NUMBER_OF_FRAMES-eng": "3692",
				"NUMBER_OF_BYTES-eng": "36277449",
				"SOURCE_ID-eng": "0012AD",
				"_STATISTICS_WRITING_APP-eng": "mkvmerge v49.0.0 ('Sick Of Losing Soulmates') 64-bit",
				"_STATISTICS_WRITING_DATE_UTC-eng": "2020-12-05 11:55:37",
				"_STATISTICS_TAGS-eng": "BPS DURATION NUMBER_OF_FRAMES NUMBER_OF_BYTES SOURCE_ID"
			}
		},
		{
			"index": 30,
			"codec_name": "hdmv_pgs_subtitle",
			"codec_long_name": "unknown",
			"codec_type": "subtitle",
			"codec_time_base": "0/1",
			"codec_tag_string": "[0][0][0][0]",
			"codec_tag": "0x0000",
			"r_frame_rate": "0/0",
			"avg_frame_rate": "0/0",
			"time_base": "1/1000",
			"start_pts": 0,
			"start_time": "0.000000",
			"duration_ts": 9010016,
			"duration": "9010.016000",
			"disposition": {
				"default": 0,
				"dub": 0,
				"original": 0,
				"comment": 0,
				"lyrics": 0,
				"karaoke": 0,
				"forced": 0,
				"hearing_impaired": 0,
				"visual_impaired": 0,
				"clean_effects": 0,
				"attached_pic": 0,
				"timed_thumbnails": 0
			},
			"tags": {
				"language": "hun",
				"title": "Hungarian-PGS",
				"BPS-eng": "26552",
				"DURATION-eng": "02:28:33.508000000",
				"NUMBER_OF_FRAMES-eng": "2596",
				"NUMBER_OF_BYTES-eng": "29585012",
				"SOURCE_ID-eng": "0012AE",
				"_STATISTICS_WRITING_APP-eng": "mkvmerge v49.0.0 ('Sick Of Losing Soulmates') 64-bit",
				"_STATISTICS_WRITING_DATE_UTC-eng": "2020-12-05 11:55:37",
				"_STATISTICS_TAGS-eng": "BPS DURATION NUMBER_OF_FRAMES NUMBER_OF_BYTES SOURCE_ID"
			}
		},
		{
			"index": 31,
			"codec_name": "hdmv_pgs_subtitle",
			"codec_long_name": "unknown",
			"codec_type": "subtitle",
			"codec_time_base": "0/1",
			"codec_tag_string": "[0][0][0][0]",
			"codec_tag": "0x0000",
			"r_frame_rate": "0/0",
			"avg_frame_rate": "0/0",
			"time_base": "1/1000",
			"start_pts": 0,
			"start_time": "0.000000",
			"duration_ts": 9010016,
			"duration": "9010.016000",
			"disposition": {
				"default": 0,
				"dub": 0,
				"original": 0,
				"comment": 0,
				"lyrics": 0,
				"karaoke": 0,
				"forced": 0,
				"hearing_impaired": 0,
				"visual_impaired": 0,
				"clean_effects": 0,
				"attached_pic": 0,
				"timed_thumbnails": 0
			},
			"tags": {
				"language": "nor",
				"title": "Norwegian-PGS",
				"BPS-eng": "28083",
				"DURATION-eng": "02:28:33.508000000",
				"NUMBER_OF_FRAMES-eng": "2622",
				"NUMBER_OF_BYTES-eng": "31290483",
				"SOURCE_ID-eng": "0012AF",
				"_STATISTICS_WRITING_APP-eng": "mkvmerge v49.0. 0 ('Sick Of Losing Soulmates') 64-bit",
				"_STATISTICS_WRITING_DATE_UTC-eng": "2020-12-05 11:55:37",
				"_STATISTICS_TAGS-eng": "BPS DURATION NUMBER_OF_FRAMES NUMBER_OF_BYTES SOURCE_ID"
			}
		},
		{
			"index": 32,
			"codec_name": "hdmv_pgs_subtitle",
			"codec_long_name": "unknown",
			"codec_type": "subtitle",
			"codec_time_base": "0/1",
			"codec_tag_string": "[0][0][0][0]",
			"codec_tag": "0x0000",
			"r_frame_rate": "0/0",
			"avg_frame_rate": "0/0",
			"time_base": "1/1000",
			"start_pts": 0,
			"start_time": "0.000000",
			"duration_ts": 9010016,
			"duration": "9010.016000",
			"disposition": {
				"default": 0,
				"dub": 0,
				"original": 0,
				"comment": 0,
				"lyrics": 0,
				"karaoke": 0,
				"forced": 0,
				"hearing_impaired": 0,
				"visual_impaired": 0,
				"clean_effects": 0,
				"attached_pic": 0,
				"timed_thumbnails": 0
			},
			"tags": {
				"language": "pol",
				"title": "Polish-PGS",
				"BPS-eng": "26210",
				"DURATION-eng": "02:28:33.508000000",
				"NUMBER_OF_FRAMES-eng": "3550",
				"NUMBER_OF_BYTES-eng": "29203486",
				"SOURCE_ID-eng": "0012B0",
				"_STATISTICS_WRITING_APP-eng": "mkvmerge v49.0.0 ('Sick Of Losing Soulmates') 64-bit",
				"_STATISTICS_WRITING_DATE_UTC-eng": "2020-12-05 11:55:37",
				"_STATISTICS_TAGS-eng": "BPS DURATION NUMBER_OF_FRAMES NUMBER_OF_BYTES SOURCE_ID"
			}
		},
		{
			"index": 33,
			"codec_name": "hdmv_pgs_subtitle",
			"codec_long_name": "unknown",
			"codec_type": "subtitle",
			"codec_time_base": "0/1",
			"codec_tag_string": "[0][0][0][0]",
			"codec_tag": "0x0000",
			"r_frame_rate": "0/0",
			"avg_frame_rate": "0/0",
			"time_base": "1/1000",
			"start_pts": 0,
			"start_time": "0.000000",
			"duration_ts": 9010016,
			"duration": "9010.016000",
			"disposition": {
				"default": 0,
				"dub": 0,
				"original": 0,
				"comment": 0,
				"lyrics": 0,
				"karaoke": 0,
				"forced": 0,
				"hearing_impaired": 0,
				"visual_impaired": 0,
				"clean_effects": 0,
				"attached_pic": 0,
				"timed_thumbnails": 0
			},
			"tags": {
				"language": "por",
				"title": "Portuguese-PGS",
				"BPS-eng": "30257",
				"DURATION-eng": "02:28:33.508000000",
				"NUMBER_OF_FRAMES-eng": "3636",
				"NUMBER_OF_BYTES-eng": "33712408",
				"SOURCE_ID-eng": "0012B1",
				"_STATISTICS_WRITING_APP-eng": "mkvmerge v49.0.0 ('Sick Of Losing Soulmates') 64-bit",
				"_STATISTICS_WRITING_DATE_UTC-eng": "2020-12-05 11:55:37",
				"_STATISTICS_TAGS-eng": "BPS DURATION NUMBER_OF_FRAMES NUMBER_OF_BYTES SOURCE_ID"
			}
		},
		{
			"index": 34,
			"codec_name": "hdmv_pgs_subtitle",
			"codec_long_name": "unknown",
			"codec_type": "subtitle",
			"codec_time_base": "0/1",
			"codec_tag_string": "[0][0][0][0]",
			"codec_tag": "0x0000",
			"r_frame_rate": "0/0",
			"avg_frame_rate": "0/0",
			"time_base": "1/1000",
			"start_pts": 0,
			"start_time": "0.000000",
			"duration_ts": 9010016,
			"duration": "9010.016000",
			"disposition": {
				"default": 0,
				"dub": 0,
				"original": 0,
				"comment": 0,
				"lyrics": 0,
				"karaoke": 0,
				"forced": 0,
				"hearing_impaired": 0,
				"visual_impaired": 0,
				"clean_effects": 0,
				"attached_pic": 0,
				"timed_thumbnails": 0
			},
			"tags": {
				"language": "swe",
				"title": "Swedish-PGS",
				"BPS-eng": "29641",
				"DURATION-eng": "02:28:31.423000000",
				"NUMBER_OF_FRAMES-eng": "2758",
				"NUMBER_OF_BYTES-eng": "33018501",
				"SOURCE_ID-eng": "0012B2",
				"_STATISTICS_WRITING_APP-eng": "mkvmerge v49.0.0 ('Sick Of Losing Soulmates') 64-bit",
				"_STATISTICS_WRITING_DATE_UTC-eng": "2020-12-05 11:55:37",
				"_STATISTICS_TAGS-eng": "BPS DURATION NUMBER_OF_FRAMES NUMBER_OF_BYTES SOURCE_ID"
			}
		},
		{
			"index": 35,
			"codec_name": "hdmv_pgs_subtitle",
			"codec_long_name": "unknown",
			"codec_type": "subtitle",
			"codec_time_base": "0/1",
			"codec_tag_string": "[0][0][0][0]",
			"codec_tag": "0x0000",
			"r_frame_rate": "0/0",
			"avg_frame_rate": "0/0",
			"time_base": "1/1000",
			"start_pts": 0,
			"start_time": "0.000000",
			"duration_ts": 9010016,
			"duration": "9010.016000",
			"disposition": {
				"default": 0,
				"dub": 0,
				"original": 0,
				"comment": 0,
				"lyrics": 0,
				"karaoke": 0,
				"forced": 0,
				"hearing_impaired": 0,
				"visual_impaired": 0,
				"clean_effects": 0,
				"attached_pic": 0,
				"timed_thumbnails": 0
			},
			"tags": {
				"language": "tha",
				"title": "Thai-PGS",
				"BPS-eng": "28825",
				"DURATION-eng": "02:28:33.508000000",
				"NUMBER_OF_FRAMES-eng": "3684",
				"NUMBER_OF_BYTES-eng": "32116594",
				"SOURCE_ID-eng": "0012B3",
				"_STATISTICS_WRITING_APP-eng": "mkvmerge v49.0.0 ('Sick Of Losing Soulmates') 64-bit",
				"_STATISTICS_WRITING_DATE_UTC-eng": "2020-12-05 11:55:37",
				"_STATISTICS_TAGS-eng": "BPS DURATION NUMBER_OF_FRAMES NUMBER_OF_BYTES SOURCE_ID"
			}
		},
		{
			"index": 36,
			"codec_name": "hdmv_pgs_subtitle",
			"codec_long_name": "unknown",
			"codec_type": "subtitle",
			"codec_time_base": "0/1",
			"codec_tag_string": "[0][0][0][0]",
			"codec_tag": "0x0000",
			"r_frame_rate": "0/0",
			"avg_frame_rate": "0/0",
			"time_base": "1/1000",
			"start_pts": 0,
			"start_time": "0.000000",
			"duration_ts": 9010016,
			"duration": "9010.016000",
			"disposition": {
				"default": 0,
				"dub": 0,
				"original": 0,
				"comment": 0,
				"lyrics": 0,
				"karaoke": 0,
				"forced": 0,
				"hearing_impaired": 0,
				"visual_impaired": 0,
				"clean_effects": 0,
				"attached_pic": 0,
				"timed_thumbnails": 0
			},
			"tags": {
				"language": "fre",
				"title": "French-FORCED-PGS",
				"BPS-eng": "228",
				"DURATION-eng": "02:12:17.116000000",
				"NUMBER_OF_FRAMES-eng": "28",
				"NUMBER_OF_BYTES-eng": "226628",
				"SOURCE_ID-eng": "0012B4",
				"_STATISTICS_WRITING_APP-eng": "mkvmerge v49.0.0 ('Sick Of Losing So ulmates') 64-bit",
				"_STATISTICS_WRITING_DATE_UTC-eng": "2020-12-05 11:55:37",
				"_STATISTICS_TAGS-eng": "BPS DURATION NUMBER_OF_FRAMES NUMBER_OF_BYTES SOURCE_ID"
			}
		},
		{
			"index": 37,
			"codec_name": "hdmv_pgs_subtitle",
			"codec_long_name": "unknown",
			"codec_type": "subtitle",
			"codec_time_base": "0/1",
			"codec_tag_string": "[0][0][0][0]",
			"codec_tag": "0x0000",
			"r_frame_rate": "0/0",
			"avg_frame_rate": "0/0",
			"time_base": "1/1000",
			"start_pts": 0,
			"start_time": "0.000000",
			"duration_ts": 9010016,
			"duration": "9010.016000",
			"disposition": {
				"default": 0,
				"dub": 0,
				"original": 0,
				"comment": 0,
				"lyrics": 0,
				"karaoke": 0,
				"forced": 0,
				"hearing_impaired": 0,
				"visual_impaired": 0,
				"clean_effects": 0,
				"attached_pic": 0,
				"timed_thumbnails": 0
			},
			"tags": {
				"language": "fre",
				"title": "French-FORCED-PGS",
				"BPS-eng": "204",
				"DURATION-eng": "02:12:17.116000000",
				"NUMBER_OF_FRAMES-eng": "34",
				"NUMBER_OF_BYTES-eng": "203068",
				"SOURCE_ID-eng": "0012B5",
				"_STATISTICS_WRITING_APP-eng": "mkvmerge v49.0.0 ('Sick Of Losing Soulmates') 64-bit",
				"_STATISTICS_WRITING_DATE_UTC-eng": "2020-12-05 11:55:37",
				"_STATISTICS_TAGS-eng": "BPS DURATION NUMBER_OF_FRAMES NUMBER_OF_BYTES SOURCE_ID"
			}
		},
		{
			"index": 38,
			"codec_name": "hdmv_pgs_subtitle",
			"codec_long_name": "unknown",
			"codec_type": "subtitle",
			"codec_time_base": "0/1",
			"codec_tag_string": "[0][0][0][0]",
			"codec_tag": "0x0000",
			"r_frame_rate": "0/0",
			"avg_frame_rate": "0/0",
			"time_base": "1/1000",
			"start_pts": 0,
			"start_time": "0.000000",
			"duration_ts": 9010016,
			"duration": "9010.016000",
			"disposition": {
				"default": 0,
				"dub": 0,
				"original": 0,
				"comment": 0,
				"lyrics": 0,
				"karaoke": 0,
				"forced": 0,
				"hearing_impaired": 0,
				"visual_impaired": 0,
				"clean_effects": 0,
				"attached_pic": 0,
				"timed_thumbnails": 0
			},
			"tags": {
				"language": "ger",
				"title": "German-FORCED-PGS",
				"BPS-eng": "144",
				"DURATION-eng": "02:12:17.116000000",
				"NUMBER_OF_FRAMES-eng": "22",
				"NUMBER_OF_BYTES-eng": "142901",
				"SOURCE_ID-eng": "0012B6",
				"_STATISTICS_WRITING_APP-eng": "mkvmerge v49.0.0 ('Sick Of Losing Soulmates') 64-bit",
				"_STATISTICS_WRITING_DATE_UTC-eng": "2020-12-05 11:55:37",
				"_STATISTICS_TAGS-eng": "BPS DURATION NUMBER_OF_FRAMES NUMBER_OF_BYTES SOURCE_ID"
			}
		},
		{
			"index": 39,
			"codec_name": "hdmv_pgs_subtitle",
			"codec_long_name": "unknown",
			"codec_type": "subtitle",
			"codec_time_base": "0/1",
			"codec_tag_string": "[0][0][0][0]",
			"codec_tag": "0x0000",
			"r_frame_rate": "0/0",
			"avg_frame_rate": "0/0",
			"time_base": "1/1000",
			"start_pts": 0,
			"start_time": "0.000000",
			"duration_ts": 9010016,
			"duration": "9010.016000",
			"disposition": {
				"default": 0,
				"dub": 0,
				"original": 0,
				"comment": 0,
				"lyrics": 0,
				"karaoke": 0,
				"forced": 0,
				"hearing_impaired": 0,
				"visual_impaired": 0,
				"clean_effects": 0,
				"attached_pic": 0,
				"timed_thumbnails": 0
			},
			"tags": {
				"language": "ita",
				"title": "Italian-FORCED-PGS",
				"BPS-eng": "216",
				"DURATION-eng": "02:12:17.116000000",
				"NUMBER_OF_FRAMES-eng": "32",
				"NUMBER_OF_BYTES-eng": "215047",
				"SOURCE_ID-eng": "0012B7",
				"_STATISTICS_WRITING_APP-eng": "mkvmerge v49.0.0 ('Sick Of Losing Soulmates') 64-bit",
				"_STATISTICS_WRITING_DATE_UTC-eng": "2020-12-05 11:55:37",
				"_STATISTICS_TAGS-eng": "BPS DURATION NUMBER_OF_FRAMES NUMBER_OF_BYTES SOURCE_ID"
			}
		},
		{
			"index": 40,
			"codec_name": "hdmv_pgs_subtitle",
			"codec_long_name": "unknown",
			"codec_type": "subtitle",
			"codec_time_base": "0/1",
			"codec_tag_string": "[0][0][0][0]",
			"codec_tag": "0x0000",
			"r_frame_rate": "0/0",
			"avg_frame_rate": "0/0",
			"time_base": "1/1000",
			"start_pts": 0,
			"start_time": "0.000000",
			"duration_ts": 9010016,
			"duration": "9010.016000",
			"disposition": {
				"default": 0,
				"dub": 0,
				"original": 0,
				"comment": 0,
				"lyrics": 0,
				"karaoke": 0,
				"forced": 0,
				"hearing_impaired": 0,
				"visual_impaired": 0,
				"clean_effects": 0,
				"attached_pic": 0,
				"timed_thumbnails": 0
			},
			"tags": {
				"language": "spa",
				"title": "Spanish-FORCED-PGS",
				"BPS-eng": "204",
				"DURATION-eng": "02:12:17.075000000",
				"NUMBER_OF_FRAMES-eng": "32",
				"NUMBER_OF_BYTES-eng": "202597",
				"SOURCE_ID-eng": "0012B8",
				"_STATISTICS_WRITING_APP-eng": "mkvmerge v49.0.0 ('Sick Of Losing Soulmates') 64-bit",
				"_STATISTICS_WRITING_DATE_UTC-eng": "2020-12-05 11:55:37",
				"_STATISTICS_TAGS-eng": "BPS DURATION NUMBER_OF_FRAMES NUMBER_OF_BYTES SOURCE_ID"
			}
		},
		{
			"index": 41,
			"codec_name": "hdmv_pgs_subtitle",
			"codec_long_name": "unknown",
			"codec_type": "subtitle",
			"codec_time_base": "0/1",
			"codec_tag_string": "[0][0][0][0]",
			"codec_tag": "0x0000",
			"width": 1920,
			"height": 1080,
			"r_frame_rate": "0/0",
			"avg_frame_rate": "0/0",
			"time_base": "1/1000",
			"start_pts": 918,
			"start_time": "0.918000",
			"disposition": {
				"default": 0,
				"dub": 0,
				"original": 0,
				"comment": 0,
				"lyrics": 0,
				"karaoke": 0,
				"forced": 0,
				"hearing_impaired": 0,
				"visual_impaired": 0,
				"clean_effects": 0,
				"attached_pic": 0,
				"timed_thumbnails": 0
			},
			"tags": {
				"language": "spa",
				"title": "Spanish-FORCED-PGS",
				"BPS-eng": "5384",
				"DURATION-eng": "00:00:00.104000000",
				"NUMBER_OF_FRAMES-eng": "2",
				"NUMBER_OF_BYTES-eng": "70",
				"SOURCE_ID-eng": "0012B9",
				"_STATISTICS_WRITING_APP-eng": "mkvmerge v49.0.0 ('Sick Of Losing Soulmates') 64-bit",
				"_ST ATISTICS_WRITING_DATE_UTC-eng": "2020-12-05 11:55:37",
				"_STATISTICS_TAGS-eng": "BPS DURATION NUMBER_OF_FRAMES NUMBER_OF_BYTES SOURCE_ID"
			}
		},
		{
			"index": 42,
			"codec_name": "hdmv_pgs_subtitle",
			"codec_long_name": "unknown",
			"codec_type": "subtitle",
			"codec_time_base": "0/1",
			"codec_tag_string": "[0][0][0][0]",
			"codec_tag": "0x0000",
			"r_frame_rate": "0/0",
			"avg_frame_rate": "0/0",
			"time_base": "1/1000",
			"start_pts": 0,
			"start_time": "0.000000",
			"duration_ts": 9010016,
			"duration": "9010.016000",
			"disposition": {
				"default": 0,
				"dub": 0,
				"original": 0,
				"comment": 0,
				"lyrics": 0,
				"karaoke": 0,
				"forced": 0,
				"hearing_impaired": 0,
				"visual_impaired": 0,
				"clean_effects": 0,
				"attached_pic": 0,
				"timed_thumbnails": 0
			},
			"tags": {
				"language": "cze",
				"title": "Czech-FORCED-PGS",
				"BPS-eng": "146",
				"DURATION-eng": "02:12:17.116000000",
				"NUMBER_OF_FRAMES-eng": "28",
				"NUMBER_OF_BYTES-eng": "145148",
				"SOURCE_ID-eng": "0012BA",
				"_STATISTICS_WRITING_APP-eng": "mkvmerge v49.0.0 ('Sick Of Losing Soulmates') 64-bit",
				"_STATISTICS_WRITING_DATE_UTC-eng": "2020-12-05 11:55:37",
				"_STATISTICS_TAGS-eng": "BPS DURATION NUMBER_OF_FRAMES NUMBER_OF_BYTES SOURCE_ID"
			}
		},
		{
			"index": 43,
			"codec_name": "hdmv_pgs_subtitle",
			"codec_long_name": "unknown",
			"codec_type": "subtitle",
			"codec_time_base": "0/1",
			"codec_tag_string": "[0][0][0][0]",
			"codec_tag": "0x0000",
			"r_frame_rate": "0/0",
			"avg_frame_rate": "0/0",
			"time_base": "1/1000",
			"start_pts": 0,
			"start_time": "0.000000",
			"duration_ts": 9010016,
			"duration": "9010.016000",
			"disposition": {
				"default": 0,
				"dub": 0,
				"original": 0,
				"comment": 0,
				"lyrics": 0,
				"karaoke": 0,
				"forced": 0,
				"hearing_impaired": 0,
				"visual_impaired": 0,
				"clean_effects": 0,
				"attached_pic": 0,
				"timed_thumbnails": 0
			},
			"tags": {
				"language": "hin",
				"title": "Hindi-FORCED-PGS",
				"BPS-eng": "154",
				"DURATION-eng": "02:12:17.116000000",
				"NUMBER_OF_FRAMES-eng": "28",
				"NUMBER_OF_BYTES-eng": "152806",
				"SOURCE_ID-eng": "0012BB",
				"_STATISTICS_WRITING_APP-eng": "mkvmerge v49.0.0 ('Sick Of Losing Soulmates') 64-bit",
				"_STATISTICS_WRITING_DATE_UTC-eng": "2020-12-05 11:55:37",
				"_STATISTICS_TAGS-eng": "BPS DURATION NUMBER_OF_FRAMES NUMBER_OF_BYTES SOURCE_ID"
			}
		},
		{
			"index": 44,
			"codec_name": "hdmv_pgs_subtitle",
			"codec_long_name": "unknown",
			"codec_type": "subtitle",
			"codec_time_base": "0/1",
			"codec_tag_string": "[0][0][0][0]",
			"codec_tag": "0x0000",
			"r_frame_rate": "0/0",
			"avg_frame_rate": "0/0",
			"time_base": "1/1000",
			"start_pts": 0,
			"start_time": "0.000000",
			"duration_ts": 9010016,
			"duration": "9010.016000",
			"disposition": {
				"default": 0,
				"dub": 0,
				"original": 0,
				"comment": 0,
				"lyrics": 0,
				"karaoke": 0,
				"forced": 0,
				"hearing_impaired": 0,
				"visual_impaired": 0,
				"clean_effects": 0,
				"attached_pic": 0,
				"timed_thumbnails": 0
			},
			"tags": {
				"language": "tha",
				"title": "Thai-FORCED-PGS",
				"BPS-eng": "276",
				"DURATION-eng": "02:21:38.761000000",
				"NUMBER_OF_FRAMES-eng": "52",
				"NUMBER_OF_BYTES-eng": "293453",
				"SOURCE_ID-eng": "0012BC",
				"_STATISTICS_WRITING_APP-eng": "mkvmerge v49.0.0 ('Sick Of Losing Soulmates') 64-bit",
				"_STATISTICS_WRITING_DATE_UTC-eng": "2020-12-05 11:55:37",
				"_STATISTICS_TAGS-eng": "BPS DURATION NUMBER_OF_FRAMES NUMBER_OF_BYTES SOURCE_ID"
			}
		},
		{
			"index": 45,
			"codec_name": "hdmv_pgs_subtitle",
			"codec_long_name": "unknown",
			"codec_type": "subtitle",
			"codec_time_base": "0/1",
			"codec_tag_string": "[0][0][0][0]",
			"codec_tag": "0x0000",
			"r_frame_rate": "0/0",
			"avg_frame_rate": "0/0",
			"time_base": "1/1000",
			"start_pts": 0,
			"start_time": "0.000000",
			"duration_ts": 9010016,
			"duration": "9010.016000",
			"disposition": {
				"default": 0,
				"dub": 0,
				"original": 0,
				"comment": 0,
				"lyrics": 0,
				"karaoke": 0,
				"forced": 0,
				"hearing_impaired": 0,
				"visual_impaired": 0,
				"clean_effects": 0,
				"attached_pic": 0,
				"timed_thumbnails": 0
			},
			"tags": {
				"language": "jpn",
				"title": "Japanese-PGS",
				"BPS-eng": "19881",
				"DURATION-eng": "02:22:49.248000000",
				"NUMBER_OF_FRAMES-eng": "3243",
				"NUMBER_OF_BYTES-eng": "21296443",
				"SOURCE_ID-eng": "0012BD",
				"_STATISTICS_WRITING_APP-eng": "mkvmerge v49.0.0 ('Sick Of Losing Soulmates') 64-bit",
				"_STATISTICS_WRITING_DATE_UTC-eng": "2020-12-05 11:55:37",
				"_STATISTICS_TAGS-eng": "BPS DURATION NUMBER_OF_FRAMES NUMBER_OF_BYTES SOURCE_ID"
			}
		},
		{
			"index": 46,
			"codec_name": "hdmv_pgs_subtitle",
			"codec_long_name": "unknown",
			"codec_type": "subtitle",
			"codec_time_base": "0/1",
			"codec_tag_string": "[0][0][0][0]",
			"codec_tag": "0x0000",
			"r_frame_rate": "0/0",
			"avg_frame_rate": "0/0",
			"time_base": "1/1000",
			"start_pts": 0,
			"start_time": "0.000000",
			"duration_ts": 9010016,
			"duration": "9010.016000",
			"disposition": {
				"default": 0,
				"dub": 0,
				"original": 0,
				"comment": 0,
				"lyrics": 0,
				"karaoke": 0,
				"forced": 0,
				"hearing_impaired": 0,
				"visual_impaired": 0,
				"clean_effects": 0,
				"attached_pic": 0,
				"timed_thumbnails": 0
			},
			"tags": {
				"language": "jpn",
				"title": "Japanese-FORCED-PGS",
				"BPS-eng": "187",
				"DURATION-eng": "02:12:17.158000000",
				"NUMBER_OF_FRAMES-eng": "36",
				"NUMBER_OF_BYTES-eng": "186049",
				"SOURCE_ID-eng": "0012BE",
				"_STATISTICS_WRITING_APP-eng": "mkvmerge v49.0.0 ('Sick Of Losing Soulmates') 64-bit",
				"_STATISTICS_WRITING_DATE _UTC-eng": "2020-12-05 11:55:37",
				"_STATISTICS_TAGS-eng": "BPS DURATION NUMBER_OF_FRAMES NUMBER_OF_BYTES SOURCE_ID"
			}
		},
		{
			"index": 47,
			"codec_name": "mjpeg",
			"codec_long_name": "unknown",
			"profile": "192",
			"codec_type": "video",
			"codec_time_base": "0/1",
			"codec_tag_string": "[0][0][0][0]",
			"codec_tag": "0x0000",
			"width": 120,
			"height": 176,
			"coded_width": 120,
			"coded_height": 176,
			"has_b_frames": 0,
			"pix_fmt": "yuvj444p",
			"level": -99,
			"color_range": "pc",
			"color_space": "bt470bg",
			"chroma_location": "center",
			"refs": 1,
			"r_frame_rate": "90000/1",
			"avg_frame_rate": "0/0",
			"time_base": "1/90000",
			"start_pts": 0,
			"start_time": "0.000000",
			"duration_ts": 810901440,
			"duration": "9010.016000",
			"bits_per_raw_sample": "8",
			"disposition": {
				"default": 0,
				"dub": 0,
				"original": 0,
				"comment": 0,
				"lyrics": 0,
				"karaoke": 0,
				"forced": 0,
				"hearing_impaired": 0,
				"visual_impaired": 0,
				"clean_effects": 0,
				"attached_pic": 1,
				"timed_thumbnails": 0
			},
			"tags": { "filename": "small_cover.jpg", "mimetype": "image/jpeg" }
		},
		{
			"index": 48,
			"codec_name": "mjpeg",
			"codec_long_name": "unknown",
			"profile": "192",
			"codec_type": "video",
			"codec_time_base": "0/1",
			"codec_tag_string": "[0][0][0][0]",
			"codec_tag": "0x0000",
			"width": 213,
			"height": 120,
			"coded_width": 213,
			"coded_height": 120,
			"has_b_frames": 0,
			"pix_fmt": "yuvj444p",
			"level": -99,
			"color_range": "pc",
			"color_space": "bt470bg",
			"chroma_location": "center",
			"refs": 1,
			"r_frame_rate": "90000/1",
			"avg_frame_rate": "0/0",
			"time_base": "1/90000",
			"start_pts": 0,
			"start_time": "0.000000",
			"duration_ts": 810901440,
			"duration": "9010.016000",
			"bits_per_raw_sample": "8",
			"disposition": {
				"default": 0,
				"dub": 0,
				"original": 0,
				"comment": 0,
				"lyrics": 0,
				"karaoke": 0,
				"forced": 0,
				"hearing_impaired": 0,
				"visual_impaired": 0,
				"clean_effects": 0,
				"attached_pic": 1,
				"timed_thumbnails": 0
			},
			"tags": { "filename": "small_cover_land.jpg", "mimetype": "image/jpeg" }
		},
		{
			"index": 49,
			"codec_name": "mjpeg",
			"codec_long_name": "unknown",
			"profile": "192",
			"codec_type": "video",
			"codec_time_base": "0/1",
			"codec_tag_string": "[0][0][0][0]",
			"codec_tag": "0x0000",
			"width": 600,
			"height": 882,
			"coded_width": 600,
			"coded_height": 882,
			"has_b_frames": 0,
			"pix_fmt": "yuvj444p",
			"level": -99,
			"color_range": "pc",
			"color_space": "bt470bg",
			"chroma_location": "center",
			"refs": 1,
			"r_frame_rate": "90000/1",
			"avg_frame_rate": "0/0",
			"time_base": "1/90000",
			"start_pts": 0,
			"start_time": "0.000000",
			"duration_ts": 810901440,
			"duration": "9010.016000",
			"bits_per_raw_sample": "8",
			"disposition": {
				"default": 0,
				"dub": 0,
				"original": 0,
				"comment": 0,
				"lyrics": 0,
				"karaoke": 0,
				"forced": 0,
				"hearing_impaired": 0,
				"visual_impaired": 0,
				"clean_effects": 0,
				"attached_pic": 1,
				"timed_thumbnails": 0
			},
			"tags": { "filename": "cover.jpg", "mimetype": "image/jpeg" }
		},
		{
			"index": 50,
			"codec_name": "mjpeg",
			"codec_long_name": "unknown",
			"profile": "192",
			"codec_type": "video",
			"codec_time_base": "0/1",
			"codec_tag_string": "[0][0][0][0]",
			"codec_tag": "0x0000",
			"width": 1067,
			"height": 600,
			"coded_width": 1067,
			"coded_height": 600,
			"has_b_frames": 0,
			"pix_fmt": "yuvj444p",
			"level": -99,
			"color_range": "pc",
			"color_space": "bt470bg",
			"chroma_location": "center",
			"refs": 1,
			"r_frame_rate": "90000/1",
			"avg_frame_rate": "0/0",
			"time_base": "1/90000",
			"start_pts": 0,
			"start_time": "0.000000",
			"duration_ts": 810901440,
			"duration": "9010.016000",
			"bits_per_raw_sample": "8",
			"disposition": {
				"default": 0,
				"dub": 0,
				"original": 0,
				"comment": 0,
				"lyrics": 0,
				"karaoke": 0,
				"forced": 0,
				"hearing_impaired": 0,
				"visual_impaired": 0,
				"clean_effects": 0,
				"attached_pic": 1,
				"timed_thumbnails": 0
			},
			"tags": { "filename": "cover_land.jpg", "mimetype": "image/jpeg" }
		}
	],
	"format": {
		"filename": "https://74i1bv.alldebridrox.ovh/dl/1zjrios7e1a/Tenet.2020.IMAX.2160p.BluRay.REMUX.HEVC.DTS-HD.MA.5.1-FGT.mkv",
		"nb_streams": 51,
		"nb_programs": 0,
		"format_name": "matroska,webm",
		"start_time": "0.000000",
		"duration": "9010.016000",
		"size": "82046766287",
		"bit_rate": "72849385",
		"probe_score": 100,
		"tags": {
			"title": "Tenet.2020.IMAX.2160p.BluRay.REMUX.HEVC.DTS-HD.MA.5.1-FGT",
			"encoder": "libebml v1.4.0 + libmatroska v1.6.1",
			"creation_time": "2020-12-05T11:55:37.000000Z"
		}
	}
}
